<svg width="30" height="41" viewBox="0 0 30 41" fill="none" xmlns="http://www.w3.org/2000/svg">
<rect x="0.5" y="0.5" width="29" height="40" fill="transparent" stroke="#E5E5E5"/>
<path d="M11.424 12.316C12.3853 12.4093 13.118 12.708 13.622 13.212C14.126 13.7067 14.378 14.3413 14.378 15.116C14.378 15.676 14.238 16.1847 13.958 16.642C13.678 17.09 13.258 17.4493 12.698 17.72C12.1473 17.9813 11.4707 18.112 10.668 18.112C9.968 18.112 9.296 18.0093 8.652 17.804C8.008 17.5893 7.48067 17.2953 7.07 16.922L7.714 15.816C8.05 16.1333 8.47933 16.39 9.002 16.586C9.52467 16.7727 10.08 16.866 10.668 16.866C11.396 16.866 11.9607 16.712 12.362 16.404C12.7727 16.096 12.978 15.6713 12.978 15.13C12.978 14.5887 12.7773 14.1687 12.376 13.87C11.9747 13.5713 11.368 13.422 10.556 13.422H9.772V12.442L12.236 9.418H7.518V8.2H13.986V9.152L11.424 12.316ZM19.9117 12.05C20.5557 12.05 21.1297 12.1713 21.6337 12.414C22.1471 12.6567 22.5484 13.0067 22.8377 13.464C23.1271 13.912 23.2717 14.43 23.2717 15.018C23.2717 15.634 23.1177 16.1753 22.8097 16.642C22.5111 17.1087 22.0957 17.4727 21.5637 17.734C21.0411 17.986 20.4531 18.112 19.7997 18.112C18.4837 18.112 17.4664 17.6873 16.7477 16.838C16.0384 15.9887 15.6837 14.7847 15.6837 13.226C15.6837 12.134 15.8751 11.2053 16.2577 10.44C16.6497 9.66533 17.1911 9.082 17.8817 8.69C18.5817 8.28867 19.3937 8.088 20.3177 8.088C20.7937 8.088 21.2417 8.13933 21.6617 8.242C22.0817 8.33533 22.4457 8.47533 22.7537 8.662L22.2217 9.754C21.7551 9.446 21.1297 9.292 20.3457 9.292C19.3284 9.292 18.5304 9.60933 17.9517 10.244C17.3731 10.8693 17.0837 11.784 17.0837 12.988C17.0837 13.1373 17.0884 13.254 17.0977 13.338C17.3777 12.918 17.7604 12.6007 18.2457 12.386C18.7404 12.162 19.2957 12.05 19.9117 12.05ZM19.7437 16.978C20.3877 16.978 20.9104 16.8053 21.3117 16.46C21.7131 16.1147 21.9137 15.6527 21.9137 15.074C21.9137 14.4953 21.7084 14.038 21.2977 13.702C20.8964 13.3567 20.3551 13.184 19.6737 13.184C19.2351 13.184 18.8431 13.268 18.4977 13.436C18.1617 13.604 17.8957 13.8327 17.6997 14.122C17.5131 14.4113 17.4197 14.7333 17.4197 15.088C17.4197 15.4333 17.5084 15.7507 17.6857 16.04C17.8724 16.32 18.1384 16.5487 18.4837 16.726C18.8384 16.894 19.2584 16.978 19.7437 16.978Z" fill="#999999"/>
<path d="M15.298 35.084C14.57 35.084 13.87 34.9673 13.198 34.734C12.5353 34.5007 12.022 34.1927 11.658 33.81L12.064 33.012C12.4187 33.3667 12.89 33.656 13.478 33.88C14.066 34.0947 14.6727 34.202 15.298 34.202C16.1753 34.202 16.8333 34.0433 17.272 33.726C17.7107 33.3993 17.93 32.9793 17.93 32.466C17.93 32.074 17.8087 31.7613 17.566 31.528C17.3327 31.2947 17.0433 31.1173 16.698 30.996C16.3527 30.8653 15.872 30.7253 15.256 30.576C14.5187 30.3893 13.9307 30.212 13.492 30.044C13.0533 29.8667 12.6753 29.6007 12.358 29.246C12.05 28.8913 11.896 28.4107 11.896 27.804C11.896 27.3093 12.0267 26.8613 12.288 26.46C12.5493 26.0493 12.9507 25.7227 13.492 25.48C14.0333 25.2373 14.7053 25.116 15.508 25.116C16.068 25.116 16.614 25.1953 17.146 25.354C17.6873 25.5033 18.154 25.7133 18.546 25.984L18.196 26.81C17.7853 26.5393 17.3467 26.3387 16.88 26.208C16.4133 26.068 15.956 25.998 15.508 25.998C14.6493 25.998 14.0007 26.166 13.562 26.502C13.1327 26.8287 12.918 27.2533 12.918 27.776C12.918 28.168 13.0347 28.4853 13.268 28.728C13.5107 28.9613 13.8093 29.1433 14.164 29.274C14.528 29.3953 15.0133 29.5307 15.62 29.68C16.3387 29.8573 16.9173 30.0347 17.356 30.212C17.804 30.38 18.182 30.6413 18.49 30.996C18.798 31.3413 18.952 31.8127 18.952 32.41C18.952 32.9047 18.8167 33.3573 18.546 33.768C18.2847 34.1693 17.8787 34.4913 17.328 34.734C16.7773 34.9673 16.1007 35.084 15.298 35.084Z" fill="#999999"/>
<rect x="6" y="21" width="18" height="1" fill="#999999"/>
</svg>
