<svg width="30" height="41" viewBox="0 0 30 41" fill="none" xmlns="http://www.w3.org/2000/svg">
<rect x="0.5" y="0.5" width="29" height="40" fill="transparent" stroke="#E5E5E5"/>
<path d="M10.424 12.316C11.3853 12.4093 12.118 12.708 12.622 13.212C13.126 13.7067 13.378 14.3413 13.378 15.116C13.378 15.676 13.238 16.1847 12.958 16.642C12.678 17.09 12.258 17.4493 11.698 17.72C11.1473 17.9813 10.4707 18.112 9.668 18.112C8.968 18.112 8.296 18.0093 7.652 17.804C7.008 17.5893 6.48067 17.2953 6.07 16.922L6.714 15.816C7.05 16.1333 7.47933 16.39 8.002 16.586C8.52467 16.7727 9.08 16.866 9.668 16.866C10.396 16.866 10.9607 16.712 11.362 16.404C11.7727 16.096 11.978 15.6713 11.978 15.13C11.978 14.5887 11.7773 14.1687 11.376 13.87C10.9747 13.5713 10.368 13.422 9.556 13.422H8.772V12.442L11.236 9.418H6.518V8.2H12.986V9.152L10.424 12.316ZM20.6757 12.862C21.2357 13.0767 21.6651 13.3847 21.9637 13.786C22.2624 14.1873 22.4117 14.668 22.4117 15.228C22.4117 15.816 22.2531 16.3293 21.9357 16.768C21.6184 17.1973 21.1657 17.5287 20.5777 17.762C19.9897 17.9953 19.2991 18.112 18.5057 18.112C17.7217 18.112 17.0357 17.9953 16.4477 17.762C15.8691 17.5287 15.4211 17.1973 15.1037 16.768C14.7864 16.3293 14.6277 15.816 14.6277 15.228C14.6277 14.668 14.7724 14.1873 15.0617 13.786C15.3604 13.3847 15.7897 13.0767 16.3497 12.862C15.9017 12.6473 15.5611 12.3627 15.3277 12.008C15.0944 11.6533 14.9777 11.2333 14.9777 10.748C14.9777 10.2067 15.1224 9.73533 15.4117 9.334C15.7104 8.93267 16.1257 8.62467 16.6577 8.41C17.1897 8.19533 17.8057 8.088 18.5057 8.088C19.2151 8.088 19.8357 8.19533 20.3677 8.41C20.9091 8.62467 21.3244 8.93267 21.6137 9.334C21.9124 9.73533 22.0617 10.2067 22.0617 10.748C22.0617 11.224 21.9404 11.644 21.6977 12.008C21.4644 12.3627 21.1237 12.6473 20.6757 12.862ZM18.5057 9.222C17.8431 9.222 17.3204 9.36667 16.9377 9.656C16.5551 9.936 16.3637 10.3187 16.3637 10.804C16.3637 11.2893 16.5504 11.672 16.9237 11.952C17.3064 12.232 17.8337 12.372 18.5057 12.372C19.1871 12.372 19.7191 12.232 20.1017 11.952C20.4937 11.672 20.6897 11.2893 20.6897 10.804C20.6897 10.3187 20.4891 9.936 20.0877 9.656C19.6957 9.36667 19.1684 9.222 18.5057 9.222ZM18.5057 16.978C19.2804 16.978 19.8917 16.8193 20.3397 16.502C20.7877 16.1753 21.0117 15.7367 21.0117 15.186C21.0117 14.6447 20.7877 14.22 20.3397 13.912C19.8917 13.5947 19.2804 13.436 18.5057 13.436C17.7311 13.436 17.1244 13.5947 16.6857 13.912C16.2471 14.22 16.0277 14.6447 16.0277 15.186C16.0277 15.7367 16.2471 16.1753 16.6857 16.502C17.1244 16.8193 17.7311 16.978 18.5057 16.978Z" fill="#999999"/>
<path d="M19.774 25.2V35H18.78V27.16L14.93 33.754H14.44L10.59 27.202V35H9.596V25.2H10.45L14.706 32.466L18.92 25.2H19.774Z" fill="#999999"/>
<rect x="6" y="21" width="18" height="1" fill="#999999"/>
</svg>
