<svg width="17" height="17" viewBox="0 0 17 17" fill="none" xmlns="http://www.w3.org/2000/svg">
<path d="M16.9719 5.31012C16.7238 2.57885 14.7906 0.597251 12.3712 0.597251C10.7594 0.597251 9.28356 1.46463 8.45313 2.85479C7.63022 1.44665 6.21488 0.596924 4.62889 0.596924C2.20985 0.596924 0.276311 2.57852 0.0284886 5.30979C0.00887212 5.43043 -0.0715556 6.06535 0.172997 7.10078C0.52544 8.59425 1.33953 9.95269 2.52665 11.0283L8.44921 16.4029L14.4734 11.0287C15.6606 9.9527 16.4746 8.59458 16.8271 7.10078C17.0716 6.06568 16.9912 5.43076 16.9719 5.31012ZM16.1905 6.95104C15.8688 8.31504 15.1231 9.55775 14.036 10.5425L8.45313 15.5235L2.96606 10.5438C1.87702 9.5571 1.13159 8.31472 0.809553 6.95071C0.578078 5.97087 0.673218 5.41736 0.673545 5.41376L0.678449 5.38074C0.890961 2.98785 2.55215 1.25081 4.62889 1.25081C6.16127 1.25081 7.51023 2.1924 8.15038 3.70778L8.45149 4.42149L8.75261 3.70778C9.38262 2.21561 10.8029 1.25113 12.3715 1.25113C14.4479 1.25113 16.1095 2.98818 16.3262 5.41213C16.3269 5.41736 16.422 5.9712 16.1905 6.95104Z" fill="#999999"/>
</svg>
