<svg width="33" height="16" viewBox="0 0 33 16" fill="none" xmlns="http://www.w3.org/2000/svg">
<path d="M31.505 15.6299H0.5C0.367 15.6299 0.24 15.5769 0.146 15.4839C0.052 15.3909 0 15.2629 0 15.1299L0.002 0.87793C0.002 0.60193 0.226 0.37793 0.502 0.37793H31.506C31.639 0.37793 31.766 0.43093 31.86 0.52393C31.954 0.61693 32.006 0.74493 32.006 0.87793L32.005 15.1299C32.005 15.4059 31.781 15.6299 31.505 15.6299ZM1 14.6299H31.005L31.006 1.37793H1.002L1 14.6299Z" fill="#999999"/>
<path d="M26.209 4.86498C25.933 4.86498 25.709 4.64098 25.709 4.36498V0.875977C25.709 0.599977 25.933 0.375977 26.209 0.375977C26.485 0.375977 26.709 0.599977 26.709 0.875977V4.36498C26.709 4.64198 26.485 4.86498 26.209 4.86498Z" fill="#999999"/>
<path d="M21.1082 7.10298C20.8322 7.10298 20.6082 6.87898 20.6082 6.60298V0.875977C20.6082 0.599977 20.8322 0.375977 21.1082 0.375977C21.3842 0.375977 21.6082 0.599977 21.6082 0.875977V6.60298C21.6082 6.87898 21.3852 7.10298 21.1082 7.10298Z" fill="#999999"/>
<path d="M16.0042 4.86498C15.7282 4.86498 15.5042 4.64098 15.5042 4.36498V0.875977C15.5042 0.599977 15.7282 0.375977 16.0042 0.375977C16.2802 0.375977 16.5042 0.599977 16.5042 0.875977V4.36498C16.5042 4.64198 16.2802 4.86498 16.0042 4.86498Z" fill="#999999"/>
<path d="M10.8992 7.10298C10.6232 7.10298 10.3992 6.87898 10.3992 6.60298V0.875977C10.3992 0.599977 10.6232 0.375977 10.8992 0.375977C11.1752 0.375977 11.3992 0.599977 11.3992 0.875977V6.60298C11.3992 6.87898 11.1762 7.10298 10.8992 7.10298Z" fill="#999999"/>
<path d="M5.79907 4.86398C5.52307 4.86398 5.29907 4.63998 5.29907 4.36398V0.875977C5.29907 0.599977 5.52307 0.375977 5.79907 0.375977C6.07507 0.375977 6.29907 0.599977 6.29907 0.875977V4.36398C6.29907 4.64098 6.07507 4.86398 5.79907 4.86398Z" fill="#999999"/>
</svg>
