<svg xmlns="http://www.w3.org/2000/svg" width="18" height="19" viewBox="0 0 18 19" fill="none">
<path d="M5.70957 17.6393C3.56848 17.6393 1.98249 16.2912 1.98249 14.6259C1.98249 13.0399 3.88568 11.6918 6.02677 11.6918C6.50257 11.6918 6.97836 11.7711 7.45415 11.9297C8.64365 12.7227 9.43665 13.1985 9.67455 14.1501C9.75384 14.3087 9.75385 14.5466 9.75385 14.7052C9.83315 16.2912 8.72295 17.6393 5.70957 17.6393ZM6.26466 7.96477C4.83727 7.88547 3.40988 6.29947 3.17198 4.39628C2.93408 2.49309 3.88568 0.986401 5.31307 1.0657C6.74046 1.145 8.16786 2.65169 8.40576 4.55488C8.72296 6.45807 7.69205 7.96477 6.26466 7.96477ZM9.27805 10.7402C8.80225 10.3437 7.77136 9.47146 7.77136 8.99566C7.77136 8.36126 7.92995 8.12336 8.88155 7.40967C9.83314 6.69597 10.4675 5.66508 10.4675 4.47558C10.4675 3.04819 9.83314 1.7001 8.64365 1.2243H10.3882L11.657 0.272705H6.02677C3.48919 0.272705 1.11019 2.1759 1.11019 4.39628C1.11019 6.69597 2.85479 8.51986 5.39237 8.51986C5.55097 8.51986 5.70957 8.51986 5.94747 8.51986C5.78887 8.83706 5.63027 9.23356 5.63027 9.55076C5.63027 10.1852 5.94747 10.6609 6.42327 11.1367C6.10607 11.1367 5.78886 11.1367 5.47167 11.1367C2.37898 11.1367 0 13.1192 0 15.181C0 17.2428 2.61688 18.5116 5.70957 18.5116C9.27805 18.5116 11.1812 16.4498 11.1812 14.4673C11.2605 12.802 10.7847 11.8504 9.27805 10.7402ZM17.4459 8.12336H15.2255V5.90297H13.4809V8.12336H11.2605V9.86795H13.4809V12.0883H15.2255V9.86795H17.4459V8.12336Z" fill="white"/>
</svg>