<svg xmlns="http://www.w3.org/2000/svg" width="16" height="17" viewBox="0 0 16 17" fill="none">
<path d="M0.396498 5.79082H3.48918V16.5756H0.396498V5.79082ZM1.90319 4.44273C0.792991 4.44273 0 3.64973 0 2.53954C0 1.50865 0.713691 0.636353 1.90319 0.636353C3.01338 0.636353 3.72707 1.42935 3.80637 2.53954C3.72707 3.64973 3.01338 4.44273 1.90319 4.44273ZM15.8599 16.5756H12.3707V11.0246C12.3707 9.5972 11.8156 8.56631 10.6261 8.56631C9.67454 8.56631 9.19874 9.2007 8.96084 9.9144C8.88154 10.1523 8.88156 10.4695 8.88156 10.7867V16.5756H5.39236C5.39236 16.5756 5.47166 6.66312 5.39236 5.79082H8.88156V7.45611C9.11946 6.74242 10.2297 5.63223 11.9742 5.63223C14.1946 5.63223 15.8599 7.21822 15.8599 10.5488V16.5756Z" fill="white"/>
</svg>