<svg xmlns="http://www.w3.org/2000/svg" width="16" height="16" viewBox="0 0 16 16" fill="none">
<path d="M12.8465 0.0454712H3.09269C1.4274 0.0454712 0 1.39357 0 3.13816V12.892C0 14.5573 1.3481 15.9847 3.09269 15.9847H12.8465C14.5118 15.9847 15.9392 14.6366 15.9392 12.892V3.13816C15.9392 1.39357 14.5911 0.0454712 12.8465 0.0454712ZM13.7188 1.86936H14.036V4.56555H11.3398V1.86936H13.7188ZM5.70958 6.31014C6.18538 5.59644 7.05767 5.12065 8.00926 5.12065C8.96086 5.12065 9.75385 5.59644 10.3089 6.31014C10.6261 6.78594 10.8641 7.34103 10.8641 7.97543C10.8641 9.48212 9.59526 10.7509 8.08857 10.7509C6.58187 10.7509 5.31308 9.48212 5.31308 7.97543C5.23378 7.34103 5.39238 6.78594 5.70958 6.31014ZM14.4325 12.8127C14.4325 13.685 13.7188 14.3194 12.9258 14.3194H3.17198C2.29969 14.3194 1.6653 13.6057 1.6653 12.8127V6.31014H4.04428C3.80638 6.78594 3.72709 7.34103 3.72709 7.97543C3.72709 10.3544 5.70958 12.3369 8.08857 12.3369C10.4676 12.3369 12.45 10.3544 12.45 7.97543C12.45 7.42033 12.3707 6.86524 12.1328 6.31014H14.5118V12.8127H14.4325Z" fill="white"/>
</svg>