<svg xmlns="http://www.w3.org/2000/svg" width="14" height="14" viewBox="0 0 14 14" fill="none">
<path d="M0.339304 4.41095H2.98587V13.64H0.339304V4.41095ZM1.62865 3.25732C0.678604 3.25732 0 2.57871 0 1.62866C0 0.746467 0.610743 0 1.62865 0C2.57871 0 3.18945 0.678606 3.25731 1.62866C3.18945 2.57871 2.57871 3.25732 1.62865 3.25732ZM13.5722 13.64H10.5863V8.88976C10.5863 7.66827 10.1113 6.78608 9.09334 6.78608C8.27901 6.78608 7.87184 7.32896 7.66826 7.93971C7.6004 8.14329 7.60042 8.41473 7.60042 8.68618V13.64H4.61452C4.61452 13.64 4.68239 5.15742 4.61452 4.41095H7.60042V5.83603C7.804 5.22528 8.75404 4.27523 10.247 4.27523C12.1471 4.27523 13.5722 5.63244 13.5722 8.4826V13.64Z" fill="#333333"/>
</svg>