<svg xmlns="http://www.w3.org/2000/svg" width="14" height="14" viewBox="0 0 14 14" fill="none">
<path d="M10.9935 0H2.64658C1.2215 0 0 1.15363 0 2.64657V10.9934C0 12.4185 1.15364 13.64 2.64658 13.64H10.9935C12.4185 13.64 13.64 12.4864 13.64 10.9934V2.64657C13.64 1.15363 12.4864 0 10.9935 0ZM11.7399 1.5608H12.0114V3.86806H9.70409V1.5608H11.7399ZM4.88598 5.361C5.29315 4.75026 6.03961 4.34309 6.85394 4.34309C7.66827 4.34309 8.34688 4.75026 8.8219 5.361C9.09334 5.76817 9.29693 6.24319 9.29693 6.78608C9.29693 8.07543 8.21116 9.1612 6.92181 9.1612C5.63245 9.1612 4.54668 8.07543 4.54668 6.78608C4.47882 6.24319 4.61454 5.76817 4.88598 5.361ZM12.3507 10.9256C12.3507 11.6721 11.7399 12.2149 11.0613 12.2149H2.71443C1.96796 12.2149 1.42508 11.6042 1.42508 10.9256V5.361H3.4609C3.25732 5.76817 3.18946 6.24319 3.18946 6.78608C3.18946 8.8219 4.88598 10.5184 6.92181 10.5184C8.95763 10.5184 10.6541 8.8219 10.6541 6.78608C10.6541 6.31105 10.5863 5.83603 10.3827 5.361H12.4185V10.9256H12.3507Z" fill="#333333"/>
</svg>