<svg xmlns="http://www.w3.org/2000/svg" width="14" height="15" viewBox="0 0 14 15" fill="none">
<path d="M4.45917 13.5633C2.78698 13.5633 1.54832 12.5105 1.54832 11.2099C1.54832 9.9712 3.03472 8.91834 4.70691 8.91834C5.0785 8.91834 5.45009 8.98027 5.82169 9.10414C6.75069 9.72347 7.37002 10.0951 7.55582 10.8383C7.61775 10.9621 7.61775 11.1479 7.61775 11.2718C7.67969 12.5104 6.81262 13.5633 4.45917 13.5633ZM4.8927 6.00749C3.7779 5.94556 2.66312 4.7069 2.47732 3.22051C2.29152 1.73412 3.03471 0.557396 4.1495 0.619329C5.2643 0.681262 6.3791 1.85799 6.56489 3.34438C6.81263 4.83077 6.00749 6.00749 4.8927 6.00749ZM7.24615 8.17514C6.87455 7.86548 6.06943 7.18422 6.06943 6.81262C6.06943 6.31716 6.19329 6.13136 6.93649 5.57396C7.67968 5.01657 8.17514 4.21144 8.17514 3.28244C8.17514 2.16765 7.67968 1.11479 6.75069 0.743196H8.11322L9.10414 0H4.70691C2.72505 0 0.867057 1.48639 0.867057 3.22051C0.867057 5.01657 2.22959 6.44103 4.21144 6.44103C4.33531 6.44103 4.45917 6.44103 4.64497 6.44103C4.5211 6.68876 4.39724 6.99842 4.39724 7.24615C4.39724 7.74162 4.64497 8.11321 5.01657 8.48481C4.76884 8.48481 4.5211 8.48481 4.27337 8.48481C1.85798 8.48481 0 10.0331 0 11.6434C0 13.2536 2.04378 14.2446 4.45917 14.2446C7.24615 14.2446 8.73255 12.6343 8.73255 11.086C8.79448 9.7854 8.42288 9.04221 7.24615 8.17514ZM13.6252 6.13136H11.8911V4.39724H10.5286V6.13136H8.79447V7.49388H10.5286V9.22801H11.8911V7.49388H13.6252V6.13136Z" fill="#333333"/>
</svg>