<svg xmlns="http://www.w3.org/2000/svg" width="13" height="17" viewBox="0 0 13 17" fill="none">
<path d="M0 5.87074C0 7.51202 0.631262 8.96392 1.89379 9.46894C2.08317 9.53206 2.27254 9.46894 2.33567 9.21643C2.39879 9.02705 2.46192 8.64829 2.52505 8.45891C2.58818 8.20641 2.58818 8.14329 2.3988 7.95391C2.02004 7.51203 1.76754 6.94388 1.76754 6.12324C1.76754 3.72445 3.53507 1.57816 6.37575 1.57816C8.9008 1.57816 10.2896 3.15631 10.2896 5.17635C10.2896 7.89078 9.09017 10.1633 7.32264 10.1633C6.31262 10.1633 5.61824 9.34268 5.87074 8.33266C6.12325 7.13326 6.69138 5.87074 6.69138 4.98697C6.69138 4.22945 6.24949 3.59819 5.42885 3.59819C4.41883 3.59819 3.59819 4.67134 3.59819 6.06012C3.59819 6.94389 3.91382 7.57515 3.91382 7.57515C3.91382 7.57515 2.90381 11.9309 2.71443 12.6884C2.33567 14.2034 2.6513 16.0972 2.71443 16.2866C2.71443 16.4128 2.84068 16.4128 2.96693 16.3497C3.03006 16.2234 4.22946 14.7715 4.67134 13.2565C4.79759 12.8146 5.3026 10.6683 5.3026 10.6683C5.61823 11.2996 6.56513 11.8677 7.57515 11.8677C10.6052 11.8677 12.6252 9.09018 12.6252 5.42886C12.6252 2.65131 10.2896 0 6.69138 0C2.27254 0 0 3.21944 0 5.87074Z" fill="#333333"/>
</svg>