<svg xmlns="http://www.w3.org/2000/svg" width="17" height="15" viewBox="0 0 17 15" fill="none">
<path d="M14.6098 2.21121C15.3205 1.73738 15.8733 1.02663 16.1103 0.236915C15.4785 0.631774 14.6888 0.947664 13.978 1.10561C13.3462 0.394861 12.4776 0 11.5299 0C9.63457 0 8.13411 1.57944 8.13411 3.55373C8.13411 3.86962 8.1341 4.10654 8.21308 4.34345C5.37009 4.18551 2.84299 2.76402 1.18458 0.631774C0.868691 1.18458 0.710748 1.81635 0.710748 2.44813C0.710748 3.71168 1.34252 4.81729 2.21122 5.44906C1.65841 5.44906 1.10561 5.29112 0.631777 4.97523V5.0542C0.631777 6.79158 1.81636 8.21308 3.39579 8.60794C3.07991 8.68691 2.84299 8.76588 2.5271 8.76588C2.29018 8.76588 2.13224 8.76588 1.89533 8.68691C2.29019 10.1084 3.55374 11.135 5.0542 11.214C3.86962 12.1617 2.44813 12.7145 0.789719 12.7145C0.552803 12.7145 0.236916 12.7145 0 12.6355C1.50047 13.6621 3.31682 14.2149 5.21214 14.2149C11.4509 14.2149 14.9257 8.76588 14.9257 4.02757C14.9257 3.86962 14.9257 3.71168 14.9257 3.55373C15.5575 3.0799 16.1892 2.44813 16.5841 1.65841C15.9523 1.9743 15.3205 2.13224 14.6098 2.21121Z" fill="#333333"/>
</svg>