<svg xmlns="http://www.w3.org/2000/svg" width="5" height="5" viewBox="0 0 5 5" fill="none">
<path d="M2.94219 2.50045L4.90838 0.534263C5.03054 0.412211 5.03054 0.214174 4.90838 0.0921214C4.78622 -0.0300357 4.5884 -0.0300357 4.46624 0.0921214L2.50005 2.05831L0.53376 0.0921214C0.411603 -0.0300357 0.213775 -0.0300357 0.0916179 0.0921214C-0.0305393 0.214174 -0.0305393 0.412211 0.0916179 0.534263L2.05791 2.50045L0.0916179 4.46664C-0.0305393 4.58869 -0.0305393 4.78673 0.0916179 4.90878C0.152696 4.96976 0.232745 5.00029 0.312689 5.00029C0.392633 5.00029 0.472681 4.96976 0.53376 4.90868L2.50005 2.94249L4.46624 4.90868C4.52732 4.96976 4.60737 5.00029 4.68731 5.00029C4.76726 5.00029 4.8473 4.96976 4.90838 4.90868C5.03054 4.78662 5.03054 4.58859 4.90838 4.46653L2.94219 2.50045Z" fill="black"/>
</svg>