<svg width="32" height="41" viewBox="0 0 32 41" fill="none" xmlns="http://www.w3.org/2000/svg">
<rect x="0.5" y="0.5" width="31" height="40" fill="#999" stroke="#E5E5E5"/>
<path d="M16.198 15.592H14.336V18H12.978V15.592H7.532V14.612L12.544 8.2H14.056L9.254 14.388H13.02V12.26H14.336V14.388H16.198V15.592ZM25.5632 15.592H23.7012V18H22.3432V15.592H16.8972V14.612L21.9092 8.2H23.4212L18.6192 14.388H22.3852V12.26H23.7012V14.388H25.5632V15.592Z" fill="#333"/>
<path d="M10.742 35L7.578 30.688L4.428 35H3.238L6.962 29.96L3.476 25.2H4.666L7.62 29.204L10.56 25.2H11.68L8.208 29.932L11.946 35H10.742ZM19.6014 35L16.4374 30.688L13.2874 35H12.0974L15.8214 29.96L12.3354 25.2H13.5254L16.4794 29.204L19.4194 25.2H20.5394L17.0674 29.932L20.8054 35H19.6014ZM25.1535 35.084C24.4255 35.084 23.7255 34.9673 23.0535 34.734C22.3908 34.5007 21.8775 34.1927 21.5135 33.81L21.9195 33.012C22.2741 33.3667 22.7455 33.656 23.3335 33.88C23.9215 34.0947 24.5281 34.202 25.1535 34.202C26.0308 34.202 26.6888 34.0433 27.1275 33.726C27.5661 33.3993 27.7855 32.9793 27.7855 32.466C27.7855 32.074 27.6641 31.7613 27.4215 31.528C27.1881 31.2947 26.8988 31.1173 26.5535 30.996C26.2081 30.8653 25.7275 30.7253 25.1115 30.576C24.3741 30.3893 23.7861 30.212 23.3475 30.044C22.9088 29.8667 22.5308 29.6007 22.2135 29.246C21.9055 28.8913 21.7515 28.4107 21.7515 27.804C21.7515 27.3093 21.8821 26.8613 22.1435 26.46C22.4048 26.0493 22.8061 25.7227 23.3475 25.48C23.8888 25.2373 24.5608 25.116 25.3635 25.116C25.9235 25.116 26.4695 25.1953 27.0015 25.354C27.5428 25.5033 28.0095 25.7133 28.4015 25.984L28.0515 26.81C27.6408 26.5393 27.2021 26.3387 26.7355 26.208C26.2688 26.068 25.8115 25.998 25.3635 25.998C24.5048 25.998 23.8561 26.166 23.4175 26.502C22.9881 26.8287 22.7735 27.2533 22.7735 27.776C22.7735 28.168 22.8901 28.4853 23.1235 28.728C23.3661 28.9613 23.6648 29.1433 24.0195 29.274C24.3835 29.3953 24.8688 29.5307 25.4755 29.68C26.1941 29.8573 26.7728 30.0347 27.2115 30.212C27.6595 30.38 28.0375 30.6413 28.3455 30.996C28.6535 31.3413 28.8075 31.8127 28.8075 32.41C28.8075 32.9047 28.6721 33.3573 28.4015 33.768C28.1401 34.1693 27.7341 34.4913 27.1835 34.734C26.6328 34.9673 25.9561 35.084 25.1535 35.084Z" fill="#333"/>
<rect x="7" y="21" width="18" height="1" fill="#333"/>
</svg>
