<svg width="30" height="41" viewBox="0 0 30 41" fill="none" xmlns="http://www.w3.org/2000/svg">
<rect x="0.5" y="0.5" width="29" height="40" fill="transparent" stroke="#E5E5E5"/>
<path d="M15.198 15.592H13.336V18H11.978V15.592H6.532V14.612L11.544 8.2H13.056L8.254 14.388H12.02V12.26H13.336V14.388H15.198V15.592ZM20.0412 18.112C19.2666 18.112 18.5759 17.916 17.9692 17.524C17.3719 17.1227 16.9006 16.544 16.5552 15.788C16.2099 15.032 16.0372 14.136 16.0372 13.1C16.0372 12.064 16.2099 11.168 16.5552 10.412C16.9006 9.656 17.3719 9.082 17.9692 8.69C18.5759 8.28867 19.2666 8.088 20.0412 8.088C20.8066 8.088 21.4879 8.28867 22.0852 8.69C22.6919 9.082 23.1679 9.656 23.5132 10.412C23.8586 11.168 24.0312 12.064 24.0312 13.1C24.0312 14.136 23.8586 15.032 23.5132 15.788C23.1679 16.544 22.6919 17.1227 22.0852 17.524C21.4879 17.916 20.8066 18.112 20.0412 18.112ZM20.0412 16.866C20.8252 16.866 21.4506 16.544 21.9172 15.9C22.3932 15.256 22.6312 14.3227 22.6312 13.1C22.6312 11.8773 22.3932 10.944 21.9172 10.3C21.4506 9.656 20.8252 9.334 20.0412 9.334C19.2479 9.334 18.6132 9.656 18.1372 10.3C17.6706 10.944 17.4372 11.8773 17.4372 13.1C17.4372 14.3227 17.6706 15.256 18.1372 15.9C18.6132 16.544 19.2479 16.866 20.0412 16.866Z" fill="#999999"/>
<path d="M12.596 25.2H13.632V34.104H19.12V35H12.596V25.2Z" fill="#999999"/>
<rect x="6" y="21" width="18" height="1" fill="#999999"/>
</svg>
