<svg width="30" height="41" viewBox="0 0 30 41" fill="none" xmlns="http://www.w3.org/2000/svg">
<rect x="0.5" y="0.5" width="29" height="40" fill="transparent" stroke="#E5E5E5"/>
<path d="M15.198 15.592H13.336V18H11.978V15.592H6.532V14.612L11.544 8.2H13.056L8.254 14.388H12.02V12.26H13.336V14.388H15.198V15.592ZM22.8842 16.782V18H15.8422V17.048L19.8322 13.198C20.3176 12.7313 20.6442 12.33 20.8122 11.994C20.9802 11.6487 21.0642 11.3033 21.0642 10.958C21.0642 10.4447 20.8822 10.048 20.5182 9.768C20.1636 9.47867 19.6502 9.334 18.9782 9.334C17.8956 9.334 17.0602 9.68867 16.4722 10.398L15.5202 9.572C15.9029 9.10533 16.4022 8.74133 17.0182 8.48C17.6436 8.21867 18.3389 8.088 19.1042 8.088C20.1309 8.088 20.9476 8.33533 21.5542 8.83C22.1609 9.31533 22.4642 9.978 22.4642 10.818C22.4642 11.3407 22.3522 11.8353 22.1282 12.302C21.9042 12.7687 21.4796 13.3007 20.8542 13.898L17.8582 16.782H22.8842Z" fill="#999999"/>
<path d="M13.742 35L10.578 30.688L7.428 35H6.238L9.962 29.96L6.476 25.2H7.666L10.62 29.204L13.56 25.2H14.68L11.208 29.932L14.946 35H13.742ZM16.4417 25.2H17.4777V34.104H22.9657V35H16.4417V25.2Z" fill="#999999"/>
<rect x="6" y="21" width="18" height="1" fill="#999999"/>
</svg>
