<svg width="30" height="41" viewBox="0 0 30 41" fill="none" xmlns="http://www.w3.org/2000/svg">
<rect x="0.5" y="0.5" width="29" height="40" fill="transparent" stroke="#E5E5E5"/>
<path d="M10.424 12.316C11.3853 12.4093 12.118 12.708 12.622 13.212C13.126 13.7067 13.378 14.3413 13.378 15.116C13.378 15.676 13.238 16.1847 12.958 16.642C12.678 17.09 12.258 17.4493 11.698 17.72C11.1473 17.9813 10.4707 18.112 9.668 18.112C8.968 18.112 8.296 18.0093 7.652 17.804C7.008 17.5893 6.48067 17.2953 6.07 16.922L6.714 15.816C7.05 16.1333 7.47933 16.39 8.002 16.586C8.52467 16.7727 9.08 16.866 9.668 16.866C10.396 16.866 10.9607 16.712 11.362 16.404C11.7727 16.096 11.978 15.6713 11.978 15.13C11.978 14.5887 11.7773 14.1687 11.376 13.87C10.9747 13.5713 10.368 13.422 9.556 13.422H8.772V12.442L11.236 9.418H6.518V8.2H12.986V9.152L10.424 12.316ZM23.2097 15.592H21.3477V18H19.9897V15.592H14.5437V14.612L19.5557 8.2H21.0677L16.2657 14.388H20.0317V12.26H21.3477V14.388H23.2097V15.592Z" fill="#999999"/>
<path d="M13.742 35L10.578 30.688L7.428 35H6.238L9.962 29.96L6.476 25.2H7.666L10.62 29.204L13.56 25.2H14.68L11.208 29.932L14.946 35H13.742ZM19.2941 35.084C18.5661 35.084 17.8661 34.9673 17.1941 34.734C16.5314 34.5007 16.0181 34.1927 15.6541 33.81L16.0601 33.012C16.4148 33.3667 16.8861 33.656 17.4741 33.88C18.0621 34.0947 18.6688 34.202 19.2941 34.202C20.1714 34.202 20.8294 34.0433 21.2681 33.726C21.7068 33.3993 21.9261 32.9793 21.9261 32.466C21.9261 32.074 21.8048 31.7613 21.5621 31.528C21.3288 31.2947 21.0394 31.1173 20.6941 30.996C20.3488 30.8653 19.8681 30.7253 19.2521 30.576C18.5148 30.3893 17.9268 30.212 17.4881 30.044C17.0494 29.8667 16.6714 29.6007 16.3541 29.246C16.0461 28.8913 15.8921 28.4107 15.8921 27.804C15.8921 27.3093 16.0228 26.8613 16.2841 26.46C16.5454 26.0493 16.9468 25.7227 17.4881 25.48C18.0294 25.2373 18.7014 25.116 19.5041 25.116C20.0641 25.116 20.6101 25.1953 21.1421 25.354C21.6834 25.5033 22.1501 25.7133 22.5421 25.984L22.1921 26.81C21.7814 26.5393 21.3428 26.3387 20.8761 26.208C20.4094 26.068 19.9521 25.998 19.5041 25.998C18.6454 25.998 17.9968 26.166 17.5581 26.502C17.1288 26.8287 16.9141 27.2533 16.9141 27.776C16.9141 28.168 17.0308 28.4853 17.2641 28.728C17.5068 28.9613 17.8054 29.1433 18.1601 29.274C18.5241 29.3953 19.0094 29.5307 19.6161 29.68C20.3348 29.8573 20.9134 30.0347 21.3521 30.212C21.8001 30.38 22.1781 30.6413 22.4861 30.996C22.7941 31.3413 22.9481 31.8127 22.9481 32.41C22.9481 32.9047 22.8128 33.3573 22.5421 33.768C22.2808 34.1693 21.8748 34.4913 21.3241 34.734C20.7734 34.9673 20.0968 35.084 19.2941 35.084Z" fill="#999999"/>
<rect x="6" y="21" width="18" height="1" fill="#999999"/>
</svg>
