<svg width="17" height="17" viewBox="0 0 17 17" fill="none" xmlns="http://www.w3.org/2000/svg">
<path d="M16.9718 5.31021C16.7237 2.57894 14.7904 0.597342 12.3711 0.597342C10.7593 0.597342 9.28344 1.46472 8.45301 2.85488C7.63009 1.44674 6.21476 0.597015 4.62877 0.597015C2.20972 0.597015 0.276189 2.57861 0.0283666 5.30988C0.00875005 5.43053 -0.0716777 6.06545 0.172875 7.10087C0.525318 8.59434 1.3394 9.95279 2.52653 11.0284L8.44908 16.403L14.4733 11.0288C15.6604 9.95279 16.4745 8.59467 16.827 7.10087C17.0715 6.06577 16.9911 5.43085 16.9718 5.31021ZM16.1904 6.95113C15.8687 8.31513 15.1229 9.55784 14.0359 10.5426L8.45301 15.5236L2.96594 10.5439C1.8769 9.55719 1.13147 8.31481 0.809431 6.95081C0.577956 5.97096 0.673096 5.41745 0.673423 5.41385L0.678327 5.38083C0.890839 2.98794 2.55203 1.2509 4.62877 1.2509C6.16114 1.2509 7.51011 2.19249 8.15026 3.70787L8.45137 4.42158L8.75249 3.70787C9.3825 2.2157 10.8027 1.25123 12.3714 1.25123C14.4478 1.25123 16.1093 2.98827 16.3261 5.41222C16.3267 5.41745 16.4219 5.97129 16.1904 6.95113Z" fill="#EB2835"/>
</svg>
