<svg xmlns="http://www.w3.org/2000/svg" width="21" height="21" viewBox="0 0 21 21" fill="none">
<path d="M18.0174 21H2.98328C2.8961 21 2.81274 20.9643 2.75292 20.9013C2.6931 20.8383 2.66128 20.7537 2.6651 20.6665L3.38101 5.63244C3.38928 5.46253 3.52865 5.32953 3.69919 5.32953H17.3015C17.4714 5.32953 17.6114 5.46253 17.6196 5.63244L18.3356 20.6665C18.3394 20.7537 18.3082 20.8383 18.2477 20.9013C18.1873 20.9643 18.1039 21 18.0174 21ZM3.31674 20.3636H17.6833L16.9979 5.96589H4.0021L3.31674 20.3636Z" fill="black"/>
<path d="M13.9395 7.23864C13.7638 7.23864 13.6213 7.09609 13.6213 6.92045V3.75773C13.6213 2.037 12.2213 0.636364 10.4999 0.636364C8.77855 0.636364 7.37855 2.037 7.37855 3.75773V6.92045C7.37855 7.09609 7.23601 7.23864 7.06037 7.23864C6.88473 7.23864 6.74219 7.09609 6.74219 6.92045V3.75773C6.74219 1.68573 8.42791 0 10.4999 0C12.5719 0 14.2576 1.68573 14.2576 3.75773V6.92045C14.2576 7.09609 14.1157 7.23864 13.9395 7.23864Z" fill="black"/>
</svg>