<svg width="29" height="29" viewBox="0 0 29 29" fill="none" xmlns="http://www.w3.org/2000/svg">
<path d="M29 3.62499C29 2.89999 28.5167 2.41666 27.7917 2.41666H1.20833C0.483333 2.41666 0 2.89999 0 3.62499V6.04166C0 6.76666 0.483333 7.24999 1.20833 7.24999H27.7917C28.5167 7.24999 29 6.76666 29 6.04166V3.62499Z" fill="#333333"/>
<path d="M29 13.2916C29 12.5666 28.5167 12.0833 27.7917 12.0833H1.20833C0.483333 12.0833 0 12.5666 0 13.2916V15.7083C0 16.4333 0.483333 16.9166 1.20833 16.9166H27.7917C28.5167 16.9166 29 16.4333 29 15.7083V13.2916Z" fill="#333333"/>
<path d="M29 22.9583C29 22.2333 28.5167 21.75 27.7917 21.75H1.20833C0.483333 21.75 0 22.2333 0 22.9583V25.375C0 26.1 0.483333 26.5833 1.20833 26.5833H27.7917C28.5167 26.5833 29 26.1 29 25.375V22.9583Z" fill="#333333"/>
</svg>
