<svg xmlns="http://www.w3.org/2000/svg" width="10" height="14" viewBox="0 0 10 14" fill="none">
<path d="M5.04667 3.0681C4.04043 3.0681 3.22142 3.87118 3.22142 4.85783C3.22142 5.84448 4.04043 6.64755 5.04667 6.64755C6.0529 6.64755 6.87191 5.84448 6.87191 4.85783C6.87191 3.87118 6.0529 3.0681 5.04667 3.0681ZM5.04667 6.1362C4.32778 6.1362 3.74292 5.56272 3.74292 4.85783C3.74292 4.15293 4.32778 3.57945 5.04667 3.57945C5.76555 3.57945 6.35041 4.15293 6.35041 4.85783C6.35041 5.56272 5.76555 6.1362 5.04667 6.1362Z" fill="#333333"/>
<path d="M8.53627 1.43613C7.59183 0.510072 6.33606 0 5.00051 0C3.66469 0 2.40918 0.510072 1.46475 1.43613C-0.283057 3.14966 -0.500261 6.37372 0.994354 8.32708L5.00051 14L9.00066 8.33501C10.5013 6.37372 10.2841 3.14966 8.53627 1.43613ZM8.57773 8.03612L5.00051 13.1016L1.41755 8.0282C0.0619145 6.25586 0.256172 3.34423 1.83371 1.79765C2.67958 0.968242 3.80419 0.51135 5.00051 0.51135C6.19682 0.51135 7.32144 0.968242 8.16757 1.79765C9.7451 3.34423 9.93936 6.25586 8.57773 8.03612Z" fill="#333333"/>
</svg>