<svg xmlns="http://www.w3.org/2000/svg" width="15" height="15" viewBox="0 0 15 15" fill="none">
<path d="M12.0035 10.7222L9.61525 9.52825C9.39 9.4155 9.25 9.189 9.25 8.937V8.09175C9.30725 8.02175 9.3675 7.942 9.42975 7.854C9.7395 7.4165 9.98775 6.9295 10.1683 6.40425C10.521 6.2425 10.75 5.89375 10.75 5.5V4.5C10.75 4.25925 10.66 4.026 10.5 3.84375V2.514C10.514 2.3765 10.569 1.558 9.977 0.88275C9.4635 0.297 8.63025 0 7.5 0C6.36975 0 5.5365 0.297 5.023 0.8825C4.431 1.55775 4.486 2.3765 4.5 2.514V3.84375C4.34 4.026 4.25 4.25925 4.25 4.5V5.5C4.25 5.80425 4.38825 6.088 4.62425 6.27725C4.85325 7.184 5.3325 7.86725 5.5 8.0865V8.91375C5.5 9.15575 5.368 9.37775 5.15575 9.49375L2.9255 10.7102C2.20025 11.106 1.75 11.8645 1.75 12.6905V13.5C1.75 14.6865 5.51125 15 7.5 15C9.48875 15 13.25 14.6865 13.25 13.5V12.7393C13.25 11.8798 12.7723 11.1067 12.0035 10.7222ZM12.75 13.5C12.75 13.8392 10.897 14.5 7.5 14.5C4.103 14.5 2.25 13.8392 2.25 13.5V12.6905C2.25 12.0478 2.6005 11.457 3.16475 11.1495L5.395 9.933C5.76825 9.72925 6 9.3385 6 8.91375V7.909L5.94175 7.8395C5.93575 7.83225 5.323 7.091 5.08925 6.07325L5.0665 5.97425L4.98125 5.91925C4.8365 5.82575 4.75 5.669 4.75 5.5V4.5C4.75 4.35975 4.8095 4.229 4.9175 4.13125L5 4.057V2.5L4.99775 2.46725C4.997 2.4605 4.912 1.7675 5.399 1.212C5.81325 0.7395 6.52025 0.5 7.5 0.5C8.47625 0.5 9.18175 0.73775 9.5965 1.207C10.0833 1.75725 10.0027 2.46125 10.0022 2.46725L10 4.057L10.0825 4.1315C10.1905 4.229 10.25 4.35975 10.25 4.5V5.5C10.25 5.71825 10.107 5.90925 9.8945 5.97475L9.77 6.013L9.73 6.13675C9.56275 6.657 9.3245 7.1375 9.0215 7.565C8.94725 7.67025 8.875 7.7635 8.81225 7.83475L8.75 7.90575V8.937C8.75 9.3795 8.99575 9.77725 9.3915 9.97525L11.7797 11.1692C12.3783 11.4685 12.75 12.07 12.75 12.7393V13.5Z" fill="#333333"/>
</svg>