<svg xmlns="http://www.w3.org/2000/svg" width="16" height="21" viewBox="0 0 16 21" fill="none">
<path d="M0 7.73851C0 9.8003 0.792996 11.6242 2.37899 12.2586C2.61689 12.3379 2.85478 12.2586 2.93408 11.9414C3.01338 11.7035 3.09268 11.2277 3.17198 10.9898C3.25128 10.6726 3.25129 10.5933 3.01339 10.3554C2.53759 9.8003 2.22039 9.0866 2.22039 8.0557C2.22039 5.04232 4.44078 2.34614 8.00926 2.34614C11.1812 2.34614 12.9258 4.32862 12.9258 6.86621C12.9258 10.2761 11.4191 13.1309 9.19875 13.1309C7.92996 13.1309 7.05767 12.1 7.37486 10.8312C7.69206 9.3245 8.40575 7.7385 8.40575 6.62831C8.40575 5.67671 7.85066 4.88372 6.81976 4.88372C5.55097 4.88372 4.52007 6.23182 4.52007 7.97641C4.52007 9.08661 4.91657 9.8796 4.91657 9.8796C4.91657 9.8796 3.64778 15.3513 3.40988 16.3029C2.93409 18.2061 3.33058 20.585 3.40988 20.8229C3.40988 20.9815 3.56848 20.9815 3.72708 20.9022C3.80638 20.7436 5.31307 18.9197 5.86817 17.0166C6.02677 16.4615 6.66117 13.7653 6.66117 13.7653C7.05766 14.5583 8.24716 15.272 9.51595 15.272C13.3223 15.272 15.8599 11.7828 15.8599 7.18342C15.8599 3.69423 12.9258 0.363647 8.40575 0.363647C2.85478 0.363647 0 4.40793 0 7.73851Z" fill="white"/>
</svg>