<svg xmlns="http://www.w3.org/2000/svg" width="17" height="15" viewBox="0 0 17 15" fill="none">
<path d="M14.6704 2.26586C15.3841 1.79006 15.9392 1.07637 16.1771 0.283369C15.5427 0.679867 14.7497 0.997067 14.036 1.15567C13.4016 0.44197 12.5293 0.0454712 11.5777 0.0454712C9.67455 0.0454712 8.16786 1.63146 8.16786 3.61395C8.16786 3.93115 8.16786 4.16905 8.24716 4.40695C5.39237 4.24835 2.85478 2.82096 1.18949 0.679867C0.872295 1.23496 0.713697 1.86936 0.713697 2.50376C0.713697 3.77255 1.3481 4.88275 2.22039 5.51714C1.66529 5.51714 1.1102 5.35854 0.634399 5.04134V5.12065C0.634399 6.86524 1.82389 8.29263 3.40988 8.68913C3.09269 8.76843 2.85478 8.84772 2.53758 8.84772C2.29969 8.84772 2.14109 8.84772 1.90319 8.76842C2.29969 10.1958 3.56848 11.2267 5.07517 11.306C3.88568 12.2576 2.45829 12.8127 0.792996 12.8127C0.555097 12.8127 0.237899 12.8127 0 12.7334C1.50669 13.7643 3.33058 14.3194 5.23377 14.3194C11.4984 14.3194 14.9876 8.84772 14.9876 4.08975C14.9876 3.93115 14.9876 3.77255 14.9876 3.61395C15.622 3.13815 16.2564 2.50376 16.6529 1.71076C16.0185 2.02796 15.3841 2.18656 14.6704 2.26586Z" fill="white"/>
</svg>